<svg xmlns="http://www.w3.org/2000/svg" viewBox="0 0 100 100">
  <defs>
    <linearGradient id="bg" x1="0%" y1="0%" x2="100%" y2="100%">
      <stop offset="0%" stop-color="#1e9df1"/>
      <stop offset="100%" stop-color="#0d7fd4"/>
    </linearGradient>
  </defs>
  <rect width="100" height="100" rx="22" fill="url(#bg)"/>
  <svg x="8" y="20" width="84" height="60" viewBox="-5 15 110 90" preserveAspectRatio="xMidYMid meet">
    <path fill="white" d="m78.602 43.559-5.3594-0.46094-6.6289-12.191c-2.9609-4.8789-8.3516-7.9102-14.059-7.9102h-19.879c-6.25 0-11.879 3.4688-14.691 9.0508l-5.0781 10.09c-1.2383 2.4688-1.8984 5.2305-1.8984 8v14.07c0 2.6406 2.1484 4.8008 4.8008 4.8008h5.3281c0.71875 4.5312 4.6406 8 9.3711 8 4.7305 0 8.6484-3.4688 9.3711-8h23.262c0.71875 4.5312 4.6406 8 9.3711 8s8.6484-3.4688 9.3711-8h4.2891c1.2891 0 2.5117-0.51172 3.4219-1.4297 0.91016-0.92188 1.3984-2.1406 1.3789-3.4414l-0.12891-8.6211v-0.14062c-0.57031-6.4414-5.8516-11.52-12.23-11.82zm-15.453-10.648 5.4883 10.09h-22.641v-16h6.5508c4.3203 0 8.3984 2.2891 10.59 5.9102zm-41.598 0.94141c2.1289-4.2188 6.3906-6.8516 11.121-6.8516h9.3281v16h-25.059zm8.9492 39.148c-3.0312 0-5.5-2.4688-5.5-5.5s2.4688-5.5 5.5-5.5 5.5 2.4688 5.5 5.5-2.4688 5.5-5.5 5.5zm42 0c-3.0312 0-5.5-2.4688-5.5-5.5s2.4688-5.5 5.5-5.5 5.5 2.4688 5.5 5.5-2.4688 5.5-5.5 5.5zm14.23-8.2383c-0.089844 0.089843-0.28125 0.23828-0.57031 0.23828h-4.5117c-1.1016-4.0312-4.7812-7-9.1602-7-4.3789 0-8.0508 2.9688-9.1602 7h-23.691c-1.1016-4.0312-4.7812-7-9.1602-7-4.3789 0-8.0508 2.9688-9.1602 7h-5.5508c-0.44141 0-0.80078-0.35938-0.80078-0.80078v-14.07c0-1.0508 0.12891-2.1094 0.37109-3.1289h56.551l6.4102 0.55078c4.4414 0.21094 8.0781 3.6914 8.5 8.1016l0.12891 8.5391c0 0.28906-0.14062 0.48047-0.23047 0.57031z"/>
  </svg>
</svg>
